<svg xmlns="http://www.w3.org/2000/svg" viewBox="0 0 561.12 597.84">
<defs>
<style>.cls-1{fill:#999;}</style>
</defs>
<title>资源 1</title>
<g id="图层_2" data-name="图层 2">
<g id="图层_1-2" data-name="图层 1">
<path class="cls-1" d="M280.56,294.24a25.57,25.57,0,0,1-25.6-25.6V25.6a25.6,25.6,0,0,1,51.2,0v243a25.57,25.57,0,0,1-25.6,25.6Z"/>
<path class="cls-1" d="M280.56,597.84C125.84,597.84,0,472,0,317.28A279.9,279.9,0,0,1,149.92,69.12a25.64,25.64,0,1,1,23.92,45.36A228.77,228.77,0,0,0,51.2,317.36c0,126.48,102.88,229.36,229.36,229.36S509.92,443.84,509.92,317.36a229,229,0,0,0-122-202.64,25.62,25.62,0,0,1,24-45.28,280.21,280.21,0,0,1,149.2,247.84c0,154.72-125.84,280.56-280.56,280.56Z"/>
</g>
</g>
</svg>